<?xml version="1.0" encoding="utf-8"?>
<!-- License: PD. Made by Mary Akveo: https://maryakveo.com/ -->
<svg fill="#000000" width="800px" height="800px" viewBox="0 0 24 24" id="satellite-2" data-name="Line Color" xmlns="http://www.w3.org/2000/svg" class="icon line-color"><path id="secondary" d="M19.29,3.29l1.42,1.42a1,1,0,0,1,0,1.41l-2.3,2.29L15.59,5.59l2.29-2.3A1,1,0,0,1,19.29,3.29ZM17,7,14.29,9.71m-11,9.58,1.42,1.42a1,1,0,0,0,1.41,0l2.29-2.3L5.59,15.59l-2.3,2.29A1,1,0,0,0,3.29,19.29ZM7,17l2.71-2.71" style="fill: none; stroke: rgb(44, 169, 188); stroke-linecap: round; stroke-linejoin: round; stroke-width: 2;"></path><path id="primary" d="M8.84,8.84,6,6m11.49,7.24L11.83,7.59a1,1,0,0,0-1.42,0L7.59,10.41a1,1,0,0,0,0,1.42l5.65,5.66a3,3,0,0,0,4.25,0h0A3,3,0,0,0,17.49,13.24Z" style="fill: none; stroke: rgb(0, 0, 0); stroke-linecap: round; stroke-linejoin: round; stroke-width: 2;"></path><line id="secondary-upstroke" x1="5.95" y1="6" x2="6.05" y2="6" style="fill: none; stroke: rgb(44, 169, 188); stroke-linecap: round; stroke-linejoin: round; stroke-width: 2;"></line></svg>